<svg xmlns="http://www.w3.org/2000/svg" viewBox="0 0 64 64" width="64" height="64">
  <defs>
    <linearGradient id="g" x1="0" x2="1" y1="0" y2="1">
      <stop offset="0%" stop-color="#6366f1"/>
      <stop offset="100%" stop-color="#22d3ee"/>
    </linearGradient>
  </defs>
  <rect width="64" height="64" rx="12" fill="url(#g)"/>
  <path d="M20 42c2.8 2.2 6.7 3.8 12 3.8 8.3 0 12.4-3.8 12.4-8.6 0-11.2-18.6-6.7-18.6-12.2 0-2.2 2.2-3.8 6.1-3.8 3.3 0 6.1.9 8.4 2.5l2.4-4.2C40.1 17.6 36.7 16 32 16c-7.5 0-12.2 3.9-12.2 8.7 0 11.2 18.6 6.7 18.6 12.3 0 2.6-2.6 4.2-6.4 4.2-4 0-7.7-1.3-10.3-3.3L20 42z" fill="#fff"/>
</svg>
